<?xml version="1.0" encoding="iso-8859-1"?>
<!-- Generator: Adobe Illustrator 19.0.0, SVG Export Plug-In . SVG Version: 6.00 Build 0)  -->
<svg version="1.1" id="Capa_1" xmlns="http://www.w3.org/2000/svg" xmlns:xlink="http://www.w3.org/1999/xlink" x="0px" y="0px"
	 viewBox="0 0 512 512" style="enable-background:new 0 0 512 512;" xml:space="preserve">
<g>
	<g>
		<path d="M407,0H105C47.103,0,0,47.103,0,105v302c0,57.897,47.103,105,105,105h302c57.897,0,105-47.103,105-105V105
			C512,47.103,464.897,0,407,0z M482,407c0,41.355-33.645,75-75,75H105c-41.355,0-75-33.645-75-75V105c0-41.355,33.645-75,75-75h302
			c41.355,0,75,33.645,75,75V407z"/>
	</g>
</g>
<g>
	<g>
		<path d="M396,187.889V121h-40v35.165l-100-79.31L67.947,226H111v185h290V226h43.053L396,187.889z M371,381H141V206.352l115-91.207
			l115,91.207V381z"/>
	</g>
</g>
<g>
	<g>
		<path d="M256,153.435l-85,67.414V351h170V220.849L256,153.435z M311,321H201v-85.654l55-43.621l55,43.621V321z"/>
	</g>
</g>
<g>
	<g>
		<polygon points="256,230.015 231,249.842 231,291 281,291 281,249.842 		"/>
	</g>
</g>
<g>
</g>
<g>
</g>
<g>
</g>
<g>
</g>
<g>
</g>
<g>
</g>
<g>
</g>
<g>
</g>
<g>
</g>
<g>
</g>
<g>
</g>
<g>
</g>
<g>
</g>
<g>
</g>
<g>
</g>
</svg>
