<svg height="512" viewBox="0 0 64 64" width="512" xmlns="http://www.w3.org/2000/svg"><g id="Layer_13" data-name="Layer 13"><path d="m21 47h16a4 4 0 0 0 4-4v-35a6 6 0 0 1 6-6 6 6 0 0 1 6 6v50a4 4 0 0 1 -4 4h-24a4 4 0 0 1 -4-4z" fill="#5e87ca"/><path d="m53 55-4-4-4 4-4-4-4 4-4-4-4 4-4-4-4 4v-8l4-4 4 4 4-4 4 4 4-4 4 4 4-4 4 4z" fill="#3b5892"/><path d="m45 51-4-4-4 4-4-4-4 4-4-4-4 4v4l4-4 4 4 4-4 4 4 4-4 4 4 4-4 4 4v-4l-4-4z" fill="#2f4e7f"/><path d="m47 2h-32a6 6 0 0 0 -6 6v35a4 4 0 0 0 4 4h24a4 4 0 0 0 4-4v-35a6 6 0 0 1 6-6z" fill="#8cb3dd"/><path d="m41 37-4-4-4 4-4-4-4 4-4-4-4 4-4-4-4 4v-8l4-4 4 4 4-4 4 4 4-4 4 4 4-4 4 4z" fill="#4c6cb5"/><path d="m33 33-4-4-4 4-4-4-4 4-4-4-4 4v4l4-4 4 4 4-4 4 4 4-4 4 4 4-4 4 4v-4l-4-4z" fill="#3b5892"/><path d="m48 1h-32a7.008 7.008 0 0 0 -7 7v35a5.006 5.006 0 0 0 5 5h7v10a5.006 5.006 0 0 0 5 5h24a5.006 5.006 0 0 0 5-5v-50a7.008 7.008 0 0 0 -7-7zm0 2a5.006 5.006 0 0 1 5 5v36.586l-2.293-2.293a1 1 0 0 0 -1.414 0l-3.293 3.293-3-3v-34.586a5.006 5.006 0 0 1 5-5zm-37 26.414 3-3 3.293 3.293a1 1 0 0 0 1.414 0l3.293-3.293 3.293 3.293a1 1 0 0 0 1.414 0l3.293-3.293 3.293 3.293a1 1 0 0 0 1.414 0l3.293-3.293 3 3v5.172l-2.293-2.293a1 1 0 0 0 -1.414 0l-3.293 3.293-3.293-3.293a1 1 0 0 0 -1.414 0l-3.293 3.293-3.293-3.293a1 1 0 0 0 -1.414 0l-3.293 3.293-3.293-3.293a1 1 0 0 0 -1.414 0l-2.293 2.293zm31.58 15.58 2.713 2.713a1 1 0 0 0 1.414 0l3.293-3.293 3 3v5.172l-2.293-2.293a1 1 0 0 0 -1.414 0l-3.293 3.293-3.293-3.293a1 1 0 0 0 -1.414 0l-3.293 3.293-3.293-3.293a1 1 0 0 0 -1.414 0l-3.293 3.293-3.293-3.293a1 1 0 0 0 -1.414 0l-2.293 2.293v-4.586h15a5 5 0 0 0 4.58-3.006zm-26.58-41.994h27.1a6.98 6.98 0 0 0 -2.1 5v18.586l-2.293-2.293a1 1 0 0 0 -1.414 0l-3.293 3.293-3.293-3.293a1 1 0 0 0 -1.414 0l-3.293 3.293-3.293-3.293a1 1 0 0 0 -1.414 0l-3.293 3.293-3.293-3.293a1 1 0 0 0 -1.414 0l-2.293 2.293v-18.586a5.006 5.006 0 0 1 5-5zm-2 43a3 3 0 0 1 -3-3v-5.586l3-3 3.293 3.293a1 1 0 0 0 1.414 0l3.293-3.293 3.293 3.293a1 1 0 0 0 1.414 0l3.293-3.293 3.293 3.293a1 1 0 0 0 1.414 0l3.293-3.293 3 3v5.586a3 3 0 0 1 -3 3zm36 15h-24a3 3 0 0 1 -3-3v-2.586l3-3 3.293 3.293a1 1 0 0 0 1.414 0l3.293-3.293 3.293 3.293a1 1 0 0 0 1.414 0l3.293-3.293 3.293 3.293a1 1 0 0 0 1.414 0l3.293-3.293 3 3v2.586a3 3 0 0 1 -3 3z"/></g></svg>